<svg width="20" height="20" viewBox="0 0 20 20" fill="none" xmlns="http://www.w3.org/2000/svg">
<path d="M11.0833 19.9414C10.7764 19.9414 10.5191 19.8376 10.3115 19.6299C10.1038 19.4223 10 19.165 10 18.8581C10 18.5511 10.1038 18.2938 10.3115 18.0862C10.5191 17.8786 10.7764 17.7747 11.0833 17.7747H17.5833V2.60807H11.0833C10.7764 2.60807 10.5191 2.50425 10.3115 2.29661C10.1038 2.08898 10 1.83168 10 1.52474C10 1.2178 10.1038 0.960503 10.3115 0.752865C10.5191 0.545226 10.7764 0.441406 11.0833 0.441406H17.5833C18.1792 0.441406 18.6892 0.653559 19.1135 1.07786C19.5378 1.50217 19.75 2.01224 19.75 2.60807V17.7747C19.75 18.3706 19.5378 18.8806 19.1135 19.3049C18.6892 19.7293 18.1792 19.9414 17.5833 19.9414H11.0833ZM9.10625 11.2747H1.33333C1.02639 11.2747 0.769097 11.1709 0.561458 10.9633C0.353819 10.7556 0.25 10.4984 0.25 10.1914C0.25 9.88446 0.353819 9.62717 0.561458 9.41953C0.769097 9.21189 1.02639 9.10807 1.33333 9.10807H9.10625L7.075 7.07682C6.87639 6.87821 6.77708 6.63446 6.77708 6.34557C6.77708 6.05668 6.87639 5.80391 7.075 5.58724C7.27361 5.37057 7.52639 5.25773 7.83333 5.2487C8.14028 5.23967 8.40208 5.34349 8.61875 5.56016L12.4917 9.43307C12.7083 9.64974 12.8167 9.90252 12.8167 10.1914C12.8167 10.4803 12.7083 10.7331 12.4917 10.9497L8.61875 14.8227C8.40208 15.0393 8.14479 15.1431 7.84688 15.1341C7.54896 15.1251 7.29167 15.0122 7.075 14.7956C6.87639 14.5789 6.7816 14.3216 6.79063 14.0237C6.79965 13.7258 6.90347 13.4775 7.10208 13.2789L9.10625 11.2747Z" fill="#CDCDCD"/>
</svg>
