<svg width="22" height="15" viewBox="0 0 22 15" fill="none" xmlns="http://www.w3.org/2000/svg">
<path d="M11.1443 12C12.3943 12 13.4568 11.5625 14.3318 10.6875C15.2068 9.8125 15.6443 8.75 15.6443 7.5C15.6443 6.25 15.2068 5.1875 14.3318 4.3125C13.4568 3.4375 12.3943 3 11.1443 3C9.89434 3 8.83184 3.4375 7.95684 4.3125C7.08184 5.1875 6.64434 6.25 6.64434 7.5C6.64434 8.75 7.08184 9.8125 7.95684 10.6875C8.83184 11.5625 9.89434 12 11.1443 12ZM11.1443 10.2C10.3943 10.2 9.75684 9.9375 9.23184 9.4125C8.70684 8.8875 8.44434 8.25 8.44434 7.5C8.44434 6.75 8.70684 6.1125 9.23184 5.5875C9.75684 5.0625 10.3943 4.8 11.1443 4.8C11.8943 4.8 12.5318 5.0625 13.0568 5.5875C13.5818 6.1125 13.8443 6.75 13.8443 7.5C13.8443 8.25 13.5818 8.8875 13.0568 9.4125C12.5318 9.9375 11.8943 10.2 11.1443 10.2ZM11.1443 15C8.82767 15 6.711 14.3875 4.79434 13.1625C2.87767 11.9375 1.42767 10.2833 0.444336 8.2C0.394336 8.11667 0.361003 8.0125 0.344336 7.8875C0.327669 7.7625 0.319336 7.63333 0.319336 7.5C0.319336 7.36667 0.327669 7.2375 0.344336 7.1125C0.361003 6.9875 0.394336 6.88333 0.444336 6.8C1.42767 4.71667 2.87767 3.0625 4.79434 1.8375C6.711 0.6125 8.82767 0 11.1443 0C13.461 0 15.5777 0.6125 17.4943 1.8375C19.411 3.0625 20.861 4.71667 21.8443 6.8C21.8943 6.88333 21.9277 6.9875 21.9443 7.1125C21.961 7.2375 21.9693 7.36667 21.9693 7.5C21.9693 7.63333 21.961 7.7625 21.9443 7.8875C21.9277 8.0125 21.8943 8.11667 21.8443 8.2C20.861 10.2833 19.411 11.9375 17.4943 13.1625C15.5777 14.3875 13.461 15 11.1443 15ZM11.1443 13C13.0277 13 14.7568 12.5042 16.3318 11.5125C17.9068 10.5208 19.111 9.18333 19.9443 7.5C19.111 5.81667 17.9068 4.47917 16.3318 3.4875C14.7568 2.49583 13.0277 2 11.1443 2C9.261 2 7.53184 2.49583 5.95684 3.4875C4.38184 4.47917 3.17767 5.81667 2.34434 7.5C3.17767 9.18333 4.38184 10.5208 5.95684 11.5125C7.53184 12.5042 9.261 13 11.1443 13Z" fill="#A8A8A8"/>
</svg>
