<svg width="30" height="22" viewBox="0 0 30 22" fill="none" xmlns="http://www.w3.org/2000/svg">
<path d="M24.3975 13.6667C24.0816 13.6667 23.818 13.5602 23.6069 13.3473C23.3958 13.1343 23.2903 12.8704 23.2903 12.5556V9.44448H20.1791C19.8643 9.44448 19.6004 9.33763 19.3875 9.12392C19.1745 8.9102 19.068 8.64539 19.068 8.32948C19.068 8.01357 19.1745 7.75006 19.3875 7.53895C19.6004 7.32784 19.8643 7.22228 20.1791 7.22228H23.2903V4.11115C23.2903 3.79635 23.3971 3.53246 23.6108 3.31948C23.8245 3.10653 24.0894 3.00005 24.4053 3.00005C24.7212 3.00005 24.9847 3.10653 25.1958 3.31948C25.4069 3.53246 25.5125 3.79635 25.5125 4.11115V7.22228H28.6236C28.9384 7.22228 29.2023 7.32914 29.4153 7.54285C29.6282 7.75656 29.7347 8.02137 29.7347 8.33728C29.7347 8.65319 29.6282 8.91671 29.4153 9.12782C29.2023 9.33893 28.9384 9.44448 28.6236 9.44448H25.5125V12.5556C25.5125 12.8704 25.4056 13.1343 25.1919 13.3473C24.9782 13.5602 24.7134 13.6667 24.3975 13.6667ZM11.068 10.9778C9.60137 10.9778 8.38284 10.4926 7.41247 9.52228C6.44211 8.5519 5.95693 7.33338 5.95693 5.86672C5.95693 4.40005 6.44211 3.18154 7.41247 2.21118C8.38284 1.2408 9.60137 0.755615 11.068 0.755615C12.5347 0.755615 13.7532 1.2408 14.7236 2.21118C15.694 3.18154 16.1791 4.40005 16.1791 5.86672C16.1791 7.33338 15.694 8.5519 14.7236 9.52228C13.7532 10.4926 12.5347 10.9778 11.068 10.9778ZM1.51247 21.6667C1.19767 21.6667 0.933778 21.5602 0.720801 21.3473C0.507845 21.1343 0.401367 20.8704 0.401367 20.5556V18.3334C0.401367 17.563 0.599512 16.8612 0.995801 16.2279C1.39211 15.5945 1.93471 15.1186 2.6236 14.8C4.19398 14.0815 5.64833 13.5649 6.98667 13.25C8.32502 12.9352 9.68428 12.7779 11.0644 12.7779C12.4446 12.7779 13.8051 12.9352 15.1458 13.25C16.4865 13.5649 17.9347 14.0815 19.4903 14.8C20.1792 15.1334 20.7254 15.613 21.1291 16.2389C21.5328 16.8649 21.7347 17.563 21.7347 18.3334V20.5556C21.7347 20.8704 21.6282 21.1343 21.4153 21.3473C21.2023 21.5602 20.9384 21.6667 20.6236 21.6667H1.51247ZM2.62357 19.4445H19.5125V18.3334C19.5125 18.0149 19.4329 17.7149 19.2736 17.4334C19.1143 17.1519 18.8754 16.9408 18.5569 16.8C17.1199 16.0963 15.831 15.6204 14.6903 15.3723C13.5495 15.1241 12.3421 15 11.068 15C9.79397 15 8.58656 15.1278 7.4458 15.3834C6.30507 15.6389 5.00878 16.1112 3.55693 16.8C3.26802 16.9408 3.04023 17.1519 2.87357 17.4334C2.7069 17.7149 2.62357 18.0149 2.62357 18.3334V19.4445ZM11.068 8.75562C11.8903 8.75562 12.5773 8.47969 13.1291 7.92785C13.681 7.37598 13.9569 6.68894 13.9569 5.86672C13.9569 5.04449 13.681 4.35746 13.1291 3.80562C12.5773 3.25375 11.8903 2.97782 11.068 2.97782C10.2458 2.97782 9.55878 3.25375 9.00693 3.80562C8.45507 4.35746 8.17913 5.04449 8.17913 5.86672C8.17913 6.68894 8.45507 7.37598 9.00693 7.92785C9.55878 8.47969 10.2458 8.75562 11.068 8.75562Z" fill="white"/>
</svg>
