<svg width="22" height="15" viewBox="0 0 22 15" fill="none" xmlns="http://www.w3.org/2000/svg">
<path d="M17.5111 8.85542C17.2849 8.85542 17.0962 8.78413 16.9451 8.64156C16.794 8.49897 16.7184 8.32229 16.7184 8.11154V6.02863H14.4911C14.2657 6.02863 14.0768 5.95709 13.9244 5.81401C13.7719 5.67093 13.6957 5.49364 13.6957 5.28214C13.6957 5.07063 13.7719 4.89421 13.9244 4.75287C14.0768 4.61153 14.2657 4.54086 14.4911 4.54086H16.7184V2.45796C16.7184 2.2472 16.7949 2.07053 16.9479 1.92794C17.1009 1.78536 17.2905 1.71408 17.5166 1.71408C17.7428 1.71408 17.9315 1.78536 18.0826 1.92794C18.2337 2.07053 18.3093 2.2472 18.3093 2.45796V4.54086H20.5366C20.762 4.54086 20.9509 4.6124 21.1033 4.75548C21.2558 4.89856 21.332 5.07586 21.332 5.28736C21.332 5.49886 21.2558 5.67528 21.1033 5.81662C20.9509 5.95796 20.762 6.02863 20.5366 6.02863H18.3093V8.11154C18.3093 8.32229 18.2328 8.49897 18.0798 8.64156C17.9268 8.78413 17.7372 8.85542 17.5111 8.85542ZM7.9684 7.0552C6.9184 7.0552 6.04604 6.73037 5.35134 6.08072C4.65666 5.43105 4.30931 4.61525 4.30931 3.63331C4.30931 2.65138 4.65666 1.83558 5.35134 1.18593C6.04604 0.53626 6.9184 0.211426 7.9684 0.211426C9.0184 0.211426 9.89075 0.53626 10.5854 1.18593C11.2801 1.83558 11.6275 2.65138 11.6275 3.63331C11.6275 4.61525 11.2801 5.43105 10.5854 6.08072C9.89075 6.73037 9.0184 7.0552 7.9684 7.0552ZM1.12748 14.2114C0.90211 14.2114 0.713189 14.1401 0.560716 13.9976C0.40826 13.855 0.332031 13.6783 0.332031 13.4675V11.9798C0.332031 11.464 0.473885 10.9941 0.757591 10.5701C1.04131 10.1461 1.42977 9.82744 1.92295 9.61419C3.0472 9.13314 4.08838 8.78723 5.04651 8.57646C6.00465 8.3657 6.97775 8.26032 7.96582 8.26032C8.9539 8.26032 9.92786 8.3657 10.8877 8.57646C11.8475 8.78723 12.8843 9.13314 13.9979 9.61419C14.4911 9.83735 14.8822 10.1585 15.1712 10.5775C15.4602 10.9966 15.6048 11.464 15.6048 11.9798V13.4675C15.6048 13.6783 15.5285 13.855 15.3761 13.9976C15.2236 14.1401 15.0347 14.2114 14.8093 14.2114H1.12748ZM1.92292 12.7237H14.0139V11.9798C14.0139 11.7665 13.9569 11.5657 13.8428 11.3772C13.7288 11.1887 13.5578 11.0474 13.3298 10.9532C12.301 10.4821 11.3782 10.1634 10.5616 9.9973C9.74491 9.83116 8.88051 9.74809 7.9684 9.74809C7.05628 9.74809 6.19188 9.83363 5.37521 10.0047C4.55854 10.1758 3.63052 10.492 2.59113 10.9532C2.3843 11.0474 2.22122 11.1887 2.1019 11.3772C1.98258 11.5657 1.92292 11.7665 1.92292 11.9798V12.7237ZM7.9684 5.56743C8.55703 5.56743 9.04888 5.3827 9.44396 5.01324C9.83904 4.64377 10.0366 4.18379 10.0366 3.63331C10.0366 3.08283 9.83904 2.62286 9.44396 2.2534C9.04888 1.88393 8.55703 1.69919 7.9684 1.69919C7.37976 1.69919 6.8879 1.88393 6.49283 2.2534C6.09775 2.62286 5.90021 3.08283 5.90021 3.63331C5.90021 4.18379 6.09775 4.64377 6.49283 5.01324C6.8879 5.3827 7.37976 5.56743 7.9684 5.56743Z" fill="#2A3647"/>
</svg>
