<svg width="19" height="21" viewBox="0 0 19 21" fill="none" xmlns="http://www.w3.org/2000/svg">
<path d="M12.3555 16.1914C11.6555 16.1914 11.0638 15.9497 10.5805 15.4664C10.0971 14.9831 9.85547 14.3914 9.85547 13.6914C9.85547 12.9914 10.0971 12.3997 10.5805 11.9164C11.0638 11.4331 11.6555 11.1914 12.3555 11.1914C13.0555 11.1914 13.6471 11.4331 14.1305 11.9164C14.6138 12.3997 14.8555 12.9914 14.8555 13.6914C14.8555 14.3914 14.6138 14.9831 14.1305 15.4664C13.6471 15.9497 13.0555 16.1914 12.3555 16.1914ZM2.85547 20.1914C2.30547 20.1914 1.83464 19.9956 1.44297 19.6039C1.0513 19.2122 0.855469 18.7414 0.855469 18.1914V4.19141C0.855469 3.64141 1.0513 3.17057 1.44297 2.77891C1.83464 2.38724 2.30547 2.19141 2.85547 2.19141H3.85547V1.19141C3.85547 0.908073 3.9513 0.670573 4.14297 0.478906C4.33464 0.28724 4.57214 0.191406 4.85547 0.191406C5.1388 0.191406 5.3763 0.28724 5.56797 0.478906C5.75964 0.670573 5.85547 0.908073 5.85547 1.19141V2.19141H13.8555V1.19141C13.8555 0.908073 13.9513 0.670573 14.143 0.478906C14.3346 0.28724 14.5721 0.191406 14.8555 0.191406C15.1388 0.191406 15.3763 0.28724 15.568 0.478906C15.7596 0.670573 15.8555 0.908073 15.8555 1.19141V2.19141H16.8555C17.4055 2.19141 17.8763 2.38724 18.268 2.77891C18.6596 3.17057 18.8555 3.64141 18.8555 4.19141V18.1914C18.8555 18.7414 18.6596 19.2122 18.268 19.6039C17.8763 19.9956 17.4055 20.1914 16.8555 20.1914H2.85547ZM2.85547 18.1914H16.8555V8.19141H2.85547V18.1914ZM2.85547 6.19141H16.8555V4.19141H2.85547V6.19141Z" fill="#2A3647"/>
</svg>
