<svg width="22" height="20" viewBox="0 0 22 20" fill="none" xmlns="http://www.w3.org/2000/svg">
<path d="M15.2443 10.3016L13.7943 8.85156C13.9443 8.06823 13.7193 7.3349 13.1193 6.65156C12.5193 5.96823 11.7443 5.70156 10.7943 5.85156L9.34434 4.40156C9.62767 4.26823 9.91517 4.16823 10.2068 4.10156C10.4985 4.0349 10.811 4.00156 11.1443 4.00156C12.3943 4.00156 13.4568 4.43906 14.3318 5.31406C15.2068 6.18906 15.6443 7.25156 15.6443 8.50156C15.6443 8.8349 15.611 9.1474 15.5443 9.43906C15.4777 9.73073 15.3777 10.0182 15.2443 10.3016ZM18.4443 13.4516L16.9943 12.0516C17.6277 11.5682 18.1902 11.0391 18.6818 10.4641C19.1735 9.88906 19.5943 9.2349 19.9443 8.50156C19.111 6.81823 17.9152 5.48073 16.3568 4.48906C14.7985 3.4974 13.061 3.00156 11.1443 3.00156C10.661 3.00156 10.186 3.0349 9.71934 3.10156C9.25267 3.16823 8.79434 3.26823 8.34434 3.40156L6.79434 1.85156C7.47767 1.56823 8.17767 1.35573 8.89434 1.21406C9.611 1.0724 10.361 1.00156 11.1443 1.00156C13.5277 1.00156 15.6693 1.63073 17.5693 2.88906C19.4693 4.1474 20.8943 5.7849 21.8443 7.80156C21.8943 7.8849 21.9277 7.98906 21.9443 8.11406C21.961 8.23906 21.9693 8.36823 21.9693 8.50156C21.9693 8.6349 21.9568 8.76406 21.9318 8.88906C21.9068 9.01406 21.8777 9.11823 21.8443 9.20156C21.461 10.0516 20.9818 10.8349 20.4068 11.5516C19.8318 12.2682 19.1777 12.9016 18.4443 13.4516ZM18.2443 18.9016L14.7443 15.4516C14.161 15.6349 13.5735 15.7724 12.9818 15.8641C12.3902 15.9557 11.7777 16.0016 11.1443 16.0016C8.761 16.0016 6.61934 15.3724 4.71934 14.1141C2.81934 12.8557 1.39434 11.2182 0.444336 9.20156C0.394336 9.11823 0.361003 9.01406 0.344336 8.88906C0.327669 8.76406 0.319336 8.6349 0.319336 8.50156C0.319336 8.36823 0.327669 8.24323 0.344336 8.12656C0.361003 8.0099 0.394336 7.9099 0.444336 7.82656C0.794336 7.07656 1.211 6.3849 1.69434 5.75156C2.17767 5.11823 2.711 4.5349 3.29434 4.00156L1.21934 1.90156C1.036 1.71823 0.944336 1.48906 0.944336 1.21406C0.944336 0.939062 1.04434 0.701563 1.24434 0.501563C1.42767 0.318229 1.661 0.226562 1.94434 0.226562C2.22767 0.226562 2.461 0.318229 2.64434 0.501563L19.6443 17.5016C19.8277 17.6849 19.9235 17.9141 19.9318 18.1891C19.9402 18.4641 19.8443 18.7016 19.6443 18.9016C19.461 19.0849 19.2277 19.1766 18.9443 19.1766C18.661 19.1766 18.4277 19.0849 18.2443 18.9016ZM4.69434 5.40156C4.211 5.8349 3.76934 6.3099 3.36934 6.82656C2.96934 7.34323 2.62767 7.90156 2.34434 8.50156C3.17767 10.1849 4.3735 11.5224 5.93184 12.5141C7.49017 13.5057 9.22767 14.0016 11.1443 14.0016C11.4777 14.0016 11.8027 13.9807 12.1193 13.9391C12.436 13.8974 12.761 13.8516 13.0943 13.8016L12.1943 12.8516C12.011 12.9016 11.836 12.9391 11.6693 12.9641C11.5027 12.9891 11.3277 13.0016 11.1443 13.0016C9.89434 13.0016 8.83184 12.5641 7.95684 11.6891C7.08184 10.8141 6.64434 9.75156 6.64434 8.50156C6.64434 8.31823 6.65684 8.14323 6.68184 7.97656C6.70684 7.8099 6.74434 7.6349 6.79434 7.45156L4.69434 5.40156Z" fill="#A8A8A8"/>
</svg>
